REM DIRINDEX 1\2\6,1\2\7,1\2\8,1\3\9,1\3\10,1\3\11,1\4\12,1\4\13,1\4\14,1\5\15,1\5\16,1\5\17,1\5\18
REM DIRNAME cjc019,folder01,folder02,folder03,folder04,folder05,folder06,folder07,folder08,folder09,folder10,folder11,folder12,folder13,folder14,folder15,folder16,folder17
TITLE ""
FILE "2Q_t_0934-0949.mp3" MP3
  TRACK 01 AUDIO
    TITLE "13:cjc019_3929"
    INDEX 01 00:00:00
  TRACK 02 AUDIO
    TITLE "0:"
    INDEX 01 00:01:01
  TRACK 03 AUDIO
    TITLE "14:cjc019_3930"
    INDEX 01 00:01:58
  TRACK 04 AUDIO
    TITLE "0:"
    INDEX 01 00:05:07
  TRACK 05 AUDIO
    TITLE "13:cjc019_3931"
    INDEX 01 00:05:61
  TRACK 06 AUDIO
    TITLE "0:"
    INDEX 01 00:07:15
  TRACK 07 AUDIO
    TITLE "14:cjc019_3932"
    INDEX 01 00:07:72
  TRACK 08 AUDIO
    TITLE "0:"
    INDEX 01 00:10:51
  TRACK 09 AUDIO
    TITLE "13:cjc019_3933"
    INDEX 01 00:11:35
  TRACK 10 AUDIO
    TITLE "0:"
    INDEX 01 00:12:52
  TRACK 11 AUDIO
    TITLE "14:cjc019_3934"
    INDEX 01 00:13:35
  TRACK 12 AUDIO
    TITLE "0:"
    INDEX 01 00:17:55
  TRACK 13 AUDIO
    TITLE "13:cjc019_3935"
    INDEX 01 00:18:35
  TRACK 14 AUDIO
    TITLE "0:"
    INDEX 01 00:19:54
  TRACK 15 AUDIO
    TITLE "14:cjc019_3936"
    INDEX 01 00:20:43
  TRACK 16 AUDIO
    TITLE "0:"
    INDEX 01 00:22:09
  TRACK 17 AUDIO
    TITLE "13:cjc019_3937"
    INDEX 01 00:22:62
  TRACK 18 AUDIO
    TITLE "0:"
    INDEX 01 00:24:06
  TRACK 19 AUDIO
    TITLE "14:cjc019_3938"
    INDEX 01 00:24:69
  TRACK 20 AUDIO
    TITLE "0:"
    INDEX 01 00:30:08
  TRACK 21 AUDIO
    TITLE "13:cjc019_3939"
    INDEX 01 00:30:65
  TRACK 22 AUDIO
    TITLE "0:"
    INDEX 01 00:32:09
  TRACK 23 AUDIO
    TITLE "14:cjc019_3940"
    INDEX 01 00:32:68
  TRACK 24 AUDIO
    TITLE "0:"
    INDEX 01 00:35:49
  TRACK 25 AUDIO
    TITLE "13:cjc019_3941"
    INDEX 01 00:36:25
  TRACK 26 AUDIO
    TITLE "0:"
    INDEX 01 00:37:40
  TRACK 27 AUDIO
    TITLE "14:cjc019_3942"
    INDEX 01 00:38:20
  TRACK 28 AUDIO
    TITLE "0:"
    INDEX 01 00:39:39
  TRACK 29 AUDIO
    TITLE "13:cjc019_3943"
    INDEX 01 00:40:21
  TRACK 30 AUDIO
    TITLE "0:"
    INDEX 01 00:41:34
  TRACK 31 AUDIO
    TITLE "14:cjc019_3944"
    INDEX 01 00:42:21
  TRACK 32 AUDIO
    TITLE "0:"
    INDEX 01 00:46:25
  TRACK 33 AUDIO
    TITLE "13:cjc019_3945"
    INDEX 01 00:46:72
  TRACK 34 AUDIO
    TITLE "0:"
    INDEX 01 00:48:00
  TRACK 35 AUDIO
    TITLE "14:cjc019_3946"
    INDEX 01 00:48:59
  TRACK 36 AUDIO
    TITLE "0:"
    INDEX 01 00:52:28
  TRACK 37 AUDIO
    TITLE "13:cjc019_3947"
    INDEX 01 00:53:00
  TRACK 38 AUDIO
    TITLE "0:"
    INDEX 01 00:54:09
  TRACK 39 AUDIO
    TITLE "14:cjc019_3948"
    INDEX 01 00:54:66
  TRACK 40 AUDIO
    TITLE "0:"
    INDEX 01 00:57:27
  TRACK 41 AUDIO
    TITLE "13:cjc019_3949"
    INDEX 01 00:58:03
  TRACK 42 AUDIO
    TITLE "0:"
    INDEX 01 00:59:16
  TRACK 43 AUDIO
    TITLE "14:cjc019_3950"
    INDEX 01 00:59:73
  TRACK 44 AUDIO
    TITLE "0:"
    INDEX 01 01:01:58
  TRACK 45 AUDIO
    TITLE "13:cjc019_3951"
    INDEX 01 01:02:38
  TRACK 46 AUDIO
    TITLE "0:"
    INDEX 01 01:03:67
  TRACK 47 AUDIO
    TITLE "14:cjc019_3952"
    INDEX 01 01:04:48
  TRACK 48 AUDIO
    TITLE "0:"
    INDEX 01 01:07:06
  TRACK 49 AUDIO
    TITLE "13:cjc019_3953"
    INDEX 01 01:07:64
  TRACK 50 AUDIO
    TITLE "0:"
    INDEX 01 01:09:22
  TRACK 51 AUDIO
    TITLE "14:cjc019_3954"
    INDEX 01 01:10:02
  TRACK 52 AUDIO
    TITLE "0:"
    INDEX 01 01:11:60
  TRACK 53 AUDIO
    TITLE "13:cjc019_3955"
    INDEX 01 01:12:38
  TRACK 54 AUDIO
    TITLE "0:"
    INDEX 01 01:13:49
  TRACK 55 AUDIO
    TITLE "14:cjc019_3956"
    INDEX 01 01:14:33
  TRACK 56 AUDIO
    TITLE "0:"
    INDEX 01 01:16:12
  TRACK 57 AUDIO
    TITLE "13:cjc019_3957"
    INDEX 01 01:16:65
  TRACK 58 AUDIO
    TITLE "0:"
    INDEX 01 01:18:31
  TRACK 59 AUDIO
    TITLE "14:cjc019_3958"
    INDEX 01 01:19:17
  TRACK 60 AUDIO
    TITLE "0:"
    INDEX 01 01:24:53
  TRACK 61 AUDIO
    TITLE "13:cjc019_3959"
    INDEX 01 01:25:29
  TRACK 62 AUDIO
    TITLE "0:"
    INDEX 01 01:26:64
  TRACK 63 AUDIO
    TITLE "14:cjc019_3960"
    INDEX 01 01:27:40
  TRACK 64 AUDIO
    TITLE "0:"
    INDEX 01 01:30:60
